<svg width="1139" height="782" viewBox="0 0 1139 782" fill="none" xmlns="http://www.w3.org/2000/svg">
<path d="M2.67849 385.116C0.892831 385.116 0 384.208 0 382.392L1.0714 8.17077C1.0714 6.71819 1.78566 5.99189 3.21419 5.99189H106.068C138.925 5.99189 164.817 16.16 183.745 36.4961C203.03 56.8323 212.672 84.4314 212.672 119.293C212.672 145.077 207.672 167.41 197.673 186.294C187.673 205.177 174.638 219.703 158.567 229.871C142.496 240.039 124.996 245.123 106.068 245.123H65.3552V382.392C65.3552 384.208 64.4624 385.116 62.6767 385.116H2.67849ZM65.3552 179.212H106.068C117.497 179.212 127.318 173.765 135.532 162.871C144.103 151.613 148.389 137.088 148.389 119.293C148.389 105.131 144.639 93.51 137.139 84.4314C129.639 75.3527 119.282 70.8134 106.068 70.8134L65.3552 71.3581V179.212Z" fill="#56E39F"/>
<path d="M246.974 385.116C245.545 385.116 244.831 384.208 244.831 382.392L245.367 8.71548C245.367 6.89976 246.26 5.99189 248.045 5.99189H307.508C309.293 5.99189 310.186 6.89976 310.186 8.71548L309.651 318.116H420.004C421.79 318.116 422.683 319.024 422.683 320.839V382.392C422.683 384.208 421.79 385.116 420.004 385.116H246.974Z" fill="#56E39F"/>
<path d="M460.429 385.116C458.643 385.116 457.75 384.208 457.75 382.392L458.286 8.17077C458.286 6.71819 459 5.99189 460.429 5.99189H520.427C521.856 5.99189 522.57 6.71819 522.57 8.17077L523.106 382.392C523.106 384.208 522.391 385.116 520.963 385.116H460.429Z" fill="#56E39F"/>
<path d="M575.047 385.116C572.19 385.116 570.762 383.845 570.762 381.303L570.226 10.3496C570.226 7.44448 571.655 5.99189 574.512 5.99189H622.725L713.258 220.611L710.579 10.3496C710.579 7.44448 712.186 5.99189 715.4 5.99189H768.435C770.577 5.99189 771.649 7.44448 771.649 10.3496L772.184 381.848C772.184 384.027 771.292 385.116 769.506 385.116H722.365L629.689 184.66L633.439 380.758C633.439 383.663 631.831 385.116 628.617 385.116H575.047Z" fill="#56E39F"/>
<path d="M821.398 385.116C819.612 385.116 818.719 384.208 818.719 382.392L819.255 8.17077C819.255 6.71819 819.969 5.99189 821.398 5.99189H881.396C882.824 5.99189 883.539 6.71819 883.539 8.17077L884.074 382.392C884.074 384.208 883.36 385.116 881.932 385.116H821.398Z" fill="#56E39F"/>
<path d="M1030.3 390.563C1011.01 390.563 993.336 385.661 977.265 375.856C961.551 365.688 948.873 352.433 939.23 336.091C929.588 319.387 924.766 301.048 924.766 281.075L925.302 108.399C925.302 88.426 929.945 70.2687 939.23 53.9271C948.873 37.5856 961.73 24.5123 977.801 14.7074C993.872 4.90247 1011.37 0 1030.3 0C1049.58 0 1067.08 4.90247 1082.8 14.7074C1098.51 24.5123 1111.01 37.5856 1120.3 53.9271C1129.94 70.2687 1134.76 88.426 1134.76 108.399L1135.3 281.075C1135.3 301.048 1130.47 319.387 1120.83 336.091C1111.55 352.433 1098.87 365.688 1082.8 375.856C1067.08 385.661 1049.58 390.563 1030.3 390.563ZM1030.3 324.652C1041.01 324.652 1050.3 320.295 1058.16 311.579C1066.37 302.5 1070.48 292.332 1070.48 281.075L1069.94 108.399C1069.94 96.4152 1066.19 86.2471 1058.69 77.8948C1051.19 69.5424 1041.73 65.3662 1030.3 65.3662C1019.23 65.3662 1009.76 69.5424 1001.91 77.8948C994.05 85.8839 990.122 96.052 990.122 108.399V281.075C990.122 293.059 994.05 303.408 1001.91 312.124C1009.76 320.476 1019.23 324.652 1030.3 324.652Z" fill="#56E39F"/>
<path d="M2.14279 776.553C0.714265 776.553 0 775.645 0 773.829L1.0714 400.152C1.0714 398.337 1.78566 397.429 3.21419 397.429H63.2124C64.641 397.429 65.3552 398.337 65.3552 400.152V529.251L149.46 399.608C150.531 398.155 151.781 397.429 153.21 397.429H214.815C216.244 397.429 216.601 398.155 215.887 399.608L123.211 549.95L227.136 774.374C227.85 775.827 226.958 776.553 224.458 776.553H159.103C157.317 776.553 156.245 775.827 155.888 774.374L83.569 614.227L64.8195 644.186V773.829C64.8195 775.645 64.1053 776.553 62.6767 776.553H2.14279Z" fill="#56E39F"/>
<path d="M240.93 773.829L307.357 399.608C307.714 398.155 308.607 397.429 310.036 397.429H387.712C389.14 397.429 390.033 398.155 390.39 399.608L454.139 773.829C454.496 775.645 453.781 776.553 451.996 776.553H392.533C391.105 776.553 390.212 775.645 389.855 773.829L383.962 734.065H311.107L305.214 773.829C304.857 775.645 303.964 776.553 302.536 776.553H243.073C241.645 776.553 240.93 775.645 240.93 773.829ZM321.821 675.78H373.248L351.284 522.714L348.07 502.559L345.927 522.714L321.821 675.78Z" fill="#56E39F"/>
<path d="M497.936 776.553C496.508 776.553 495.793 775.645 495.793 773.829L496.329 400.152C496.329 398.337 497.222 397.429 499.007 397.429H558.47C560.256 397.429 561.149 398.337 561.149 400.152L560.613 709.552H670.967C672.752 709.552 673.645 710.46 673.645 712.276V773.829C673.645 775.645 672.752 776.553 670.967 776.553H497.936Z" fill="#56E39F"/>
<path d="M698.534 773.829L764.961 399.608C765.318 398.155 766.211 397.429 767.639 397.429H845.316C846.744 397.429 847.637 398.155 847.994 399.608L911.742 773.829C912.099 775.645 911.385 776.553 909.6 776.553H850.137C848.708 776.553 847.816 775.645 847.459 773.829L841.566 734.065H768.711L762.818 773.829C762.461 775.645 761.568 776.553 760.14 776.553H700.677C699.249 776.553 698.534 775.645 698.534 773.829ZM779.425 675.78H830.852L808.888 522.714L805.674 502.559L803.531 522.714L779.425 675.78Z" fill="#56E39F"/>
<path d="M1034 782C1014.72 782 997.04 777.098 980.969 767.293C965.255 757.124 952.577 743.87 942.934 727.528C933.649 710.823 929.006 692.485 929.006 672.512V647.455C929.006 645.639 929.899 644.731 931.685 644.731H991.683C993.111 644.731 993.826 645.639 993.826 647.455V672.512C993.826 684.495 997.754 694.845 1005.61 703.561C1013.47 711.913 1022.93 716.089 1034 716.089C1045.07 716.089 1054.54 711.731 1062.4 703.016C1070.25 694.3 1074.18 684.132 1074.18 672.512C1074.18 659.075 1065.61 647.455 1048.47 637.65C1042.75 634.381 1033.82 629.297 1021.68 622.397C1009.54 615.498 998.111 608.961 987.397 602.788C967.755 591.167 953.113 576.641 943.47 559.21C934.185 541.416 929.542 521.443 929.542 499.291C929.542 478.955 934.363 460.798 944.006 444.819C953.648 428.478 966.326 415.586 982.04 406.144C998.111 396.702 1015.43 391.981 1034 391.981C1052.93 391.981 1070.25 396.884 1085.97 406.689C1102.04 416.131 1114.72 429.022 1124 445.364C1133.64 461.342 1138.46 479.318 1138.46 499.291V543.958C1138.46 545.411 1137.75 546.137 1136.32 546.137H1076.32C1074.89 546.137 1074.18 545.411 1074.18 543.958L1073.64 499.291C1073.64 486.581 1069.72 476.231 1061.86 468.242C1054 460.253 1044.72 456.258 1034 456.258C1022.93 456.258 1013.47 460.616 1005.61 469.332C997.754 477.684 993.826 487.67 993.826 499.291C993.826 511.275 996.326 521.261 1001.33 529.251C1006.33 537.24 1015.43 544.866 1028.65 552.129C1030.43 553.218 1033.82 555.216 1038.82 558.121C1044.18 560.663 1049.9 563.749 1055.97 567.381C1062.04 570.649 1067.39 573.554 1072.04 576.096C1077.04 578.638 1080.07 580.273 1081.14 580.999C1099 591.167 1113.11 603.695 1123.46 618.584C1133.82 633.11 1139 651.086 1139 672.512C1139 693.211 1134.18 711.913 1124.54 728.618C1115.25 744.959 1102.57 758.032 1086.5 767.837C1070.79 777.279 1053.29 782 1034 782Z" fill="#56E39F"/>
</svg>
